# xmcd
#
# Track frame offsets:
# 150
# 16951
# 29839
# 45881
# 66878
# 79396
# 91755
# 107057
# 119236
# 138783
# 155070
# 171775
#
# Disc length: 2500 seconds
#
#
# Revision: 0
# Processed by: cddbd v1.5.2PL0 Copyright (c) Steve Scherf et al.
# Submitted via: FreeRIP 2.96 
#
DISCID=9e09c20c
DTITLE=Luiz Fernando e Israel - Sistema do Caipira
DYEAR=2007
DGENRE=Sertanejo
TTITLE0=01- Sistema do Caipira
TTITLE1=02- Só me Machuquei
TTITLE2=03- Som da Alegria
TTITLE3=04- Declaração
TTITLE4=05- Resposta de Cowboy
TTITLE5=06- Melhor pra Mulherada
TTITLE6=07- Eu te Avisei
TTITLE7=08- Ta querendo da pra min
TTITLE8=09- Socorro
TTITLE9=10- Doido pra te Namorar
TTITLE10=11- Hoje eu Percebi
TTITLE11=12- Pra voltar não dá
EXTD=
EXTT0=
EXTT1=
EXTT2=
EXTT3=
EXTT4=
EXTT5=
EXTT6=
EXTT7=
EXTT8=
EXTT9=
EXTT10=
EXTT11=
PLAYORDER=
